<svg xmlns="http://www.w3.org/2000/svg" width="150" height="150" viewBox="0 0 150 150">
  <defs>
    <pattern id="coral-pattern" x="0" y="0" width="150" height="150" patternUnits="userSpaceOnUse">
      <!-- Coral branch 1 -->
      <g transform="translate(30,30)">
        <circle cx="0" cy="0" r="4" fill="#FF8B87" opacity="0.3"/>
        <circle cx="-8" cy="-5" r="3" fill="#FFB6B3" opacity="0.25"/>
        <circle cx="8" cy="-5" r="3" fill="#FFB6B3" opacity="0.25"/>
        <circle cx="-12" cy="-10" r="2" fill="#FF8B87" opacity="0.2"/>
        <circle cx="12" cy="-10" r="2" fill="#FF8B87" opacity="0.2"/>
        <path d="M0,0 L-8,-5 L-12,-10 M0,0 L8,-5 L12,-10" stroke="#E85D57" stroke-width="1" opacity="0.2" fill="none"/>
      </g>
      <!-- Coral branch 2 -->
      <g transform="translate(90,60)">
        <circle cx="0" cy="0" r="5" fill="#FFB6B3" opacity="0.35"/>
        <circle cx="-10" cy="-6" r="4" fill="#FF8B87" opacity="0.3"/>
        <circle cx="10" cy="-6" r="4" fill="#FF8B87" opacity="0.3"/>
        <circle cx="-15" cy="-12" r="3" fill="#FFB6B3" opacity="0.25"/>
        <circle cx="15" cy="-12" r="3" fill="#FFB6B3" opacity="0.25"/>
        <path d="M0,0 L-10,-6 L-15,-12 M0,0 L10,-6 L15,-12" stroke="#E85D57" stroke-width="1.5" opacity="0.25" fill="none"/>
      </g>
      <!-- Coral branch 3 -->
      <g transform="translate(50,100)">
        <circle cx="0" cy="0" r="3" fill="#E85D57" opacity="0.25"/>
        <circle cx="-6" cy="-4" r="2.5" fill="#FF8B87" opacity="0.2"/>
        <circle cx="6" cy="-4" r="2.5" fill="#FF8B87" opacity="0.2"/>
        <path d="M0,0 L-6,-4 M0,0 L6,-4" stroke="#FFB6B3" stroke-width="1" opacity="0.3" fill="none"/>
      </g>
      <!-- Small coral details -->
      <circle cx="120" cy="30" r="2" fill="#FFB6B3" opacity="0.2"/>
      <circle cx="20" cy="80" r="2.5" fill="#FF8B87" opacity="0.15"/>
      <circle cx="130" cy="110" r="1.5" fill="#E85D57" opacity="0.2"/>
    </pattern>
  </defs>
  <rect width="150" height="150" fill="url(#coral-pattern)"/>
</svg>