<svg xmlns="http://www.w3.org/2000/svg" width="200" height="200" viewBox="0 0 200 200">
  <defs>
    <pattern id="palm-pattern" x="0" y="0" width="200" height="200" patternUnits="userSpaceOnUse">
      <!-- Palm frond 1 -->
      <g transform="translate(50,50) rotate(-30)">
        <path d="M0,0 Q-20,-10 -30,-25 Q-32,-28 -30,-30 Q-20,-20 0,-15 Q20,-20 30,-30 Q32,-28 30,-25 Q20,-10 0,0" 
              fill="#7FA900" 
              opacity="0.2"/>
        <line x1="0" y1="0" x2="0" y2="-25" stroke="#5C7A00" stroke-width="1" opacity="0.3"/>
      </g>
      <!-- Palm frond 2 -->
      <g transform="translate(150,100) rotate(45)">
        <path d="M0,0 Q-15,-8 -22,-20 Q-24,-22 -22,-24 Q-15,-15 0,-12 Q15,-15 22,-24 Q24,-22 22,-20 Q15,-8 0,0" 
              fill="#9BC400" 
              opacity="0.15"/>
        <line x1="0" y1="0" x2="0" y2="-20" stroke="#7FA900" stroke-width="1" opacity="0.2"/>
      </g>
      <!-- Palm frond 3 -->
      <g transform="translate(100,150) rotate(120)">
        <path d="M0,0 Q-18,-9 -27,-23 Q-29,-25 -27,-27 Q-18,-18 0,-14 Q18,-18 27,-27 Q29,-25 27,-23 Q18,-9 0,0" 
              fill="#7FA900" 
              opacity="0.18"/>
        <line x1="0" y1="0" x2="0" y2="-23" stroke="#5C7A00" stroke-width="1" opacity="0.25"/>
      </g>
    </pattern>
  </defs>
  <rect width="200" height="200" fill="url(#palm-pattern)"/>
</svg>